<svg xmlns="http://www.w3.org/2000/svg" version="1.1" xmlns:xlink="http://www.w3.org/1999/xlink" xmlns:svgjs="http://svgjs.dev/svgjs" viewBox="0 0 800 800"><defs><linearGradient x1="50%" y1="0%" x2="50%" y2="100%" id="ccchaos-grad"><stop stop-color="hsl(105, 69%, 40%)" stop-opacity="1" offset="0%"></stop><stop stop-color="hsl(105, 69%, 60%)" stop-opacity="1" offset="100%"></stop></linearGradient></defs><g stroke-width="5.5" stroke="url(#ccchaos-grad)" fill="none" stroke-linecap="round"><path d="M366.21 112.49C369.98 96.91 388.38 93.8 397.6 107.23Q403.97 115.99 410.79 125.07 417.99 134.48 425.51 144.19 433.27 154.2 441.2 164.48 449.2 175 457.19 185.72 465.07 196.59 472.75 207.58 480.15 218.63 487.17 229.67 493.76 240.66 499.84 251.53 505.35 262.23 510.26 272.7 514.54 282.89 518.17 292.76 521.16 302.25 523.53 311.34 526.3 327.97 527.64 343.26 527.41 356.36 526.81 368.32 527.62 386.26 530.28 398.63 536.05 409.08 543.99 420.36 549.27 426.65 555.28 433.42 562 440.7 569.37 448.53 577.32 456.93 585.77 465.94 594.63 475.53 603.8 485.71 613.14 496.44 622.55 507.7 631.91 519.42 641.08 531.56 649.94 544.04 658.38 556.78 666.29 569.7 673.58 582.71 680.17 595.7 685.98 608.58 690.97 621.26 695.11 633.63 698.39 645.62 700.82 657.13 702.43 668.1 703.27 678.46 703.42 688.16 702.96 697.15C701.45 708.81 682.88 724.48 669.27 719.5Q652.51 704.49 635.74 684.39 618.97 665.7 602.2 654.47 585.43 654.33 568.66 665.33 551.89 683.91 535.12 704.06 518.35 719.25 501.58 724.56 484.81 718.29 468.04 702.45 451.28 682.17 434.51 664.03 417.74 653.88 400.97 655.02 384.2 667.07 367.43 686.14 350.66 706.05 333.89 720.36 317.12 724.44 300.36 716.96 283.59 700.35 266.82 679.99 250.05 662.45 233.28 653.43 216.51 655.84 199.74 668.9 182.97 688.38 166.21 707.98 149.44 721.35 132.67 724.17C119.07 717.96 111.96 695.79 119.53 688.63Q129.91 676.22 140.03 661.77 144.86 653.32 149.52 644.18 153.99 634.38 158.25 623.96 162.29 612.96 166.1 601.47 169.68 589.54 173.04 577.27 176.19 564.73 179.14 552.02 181.91 539.23 184.55 526.46 187.08 513.79 189.53 501.31 191.96 489.1 194.4 477.24 196.91 465.78 199.51 454.79 202.27 444.31 205.22 434.36 208.39 424.97 211.83 416.14 219.75 400.4 228.64 386.19 239.14 374.1 250.54 362.93 263.1 352.61 276.11 342.37 289.3 331.56 302.25 320.04 308.43 313.73 314.37 307.05 320 299.98 325.28 292.48 330.18 284.56 334.67 276.22 338.74 267.46 342.36 258.31 345.56 248.79 348.34 238.94 350.72 228.8 352.75 218.42 354.45 207.84 355.9 197.12 357.14 186.32 358.25 175.47 359.3 164.65 360.36 153.9 361.5 143.27 362.81 132.8 365.28 117.51 366.21 112.49" stroke-dasharray="6 7" transform="rotate(0, 400, 400)" opacity="0.78"></path><path d="M369.63 122.7C372.45 107.71 390.25 104.62 400.04 117.48Q406.65 125.87 413.6 134.56 420.84 143.56 428.28 152.86 435.87 162.44 443.52 172.28 451.15 182.36 458.69 192.65 466.05 203.1 473.15 213.68 479.93 224.34 486.32 235.03 492.25 245.7 497.68 256.29 502.56 266.75 506.88 277.03 510.6 287.08 513.74 296.86 516.3 306.31 518.3 315.42 520.59 332.24 521.65 347.8 521.41 361.25 520.91 373.51 521.91 391.43 524.57 403.35 530.02 412.81 537.44 422.72 548.27 434.07 561.04 446.62 568.45 453.72 576.36 461.34 584.68 469.51 593.31 478.24 602.18 487.52 611.16 497.35 620.16 507.7 629.05 518.54 637.74 529.83 646.12 541.51 654.09 553.52 661.55 565.78 668.42 578.23 674.64 590.79 680.14 603.35 684.89 615.85 688.86 628.18 692.04 640.27 694.44 652.03 696.08 663.39 697.02 674.27 697.31 684.61C696.73 698.43 679.43 709.62 666.21 699.82Q649.91 681.96 633.62 662.8 617.32 648.09 601.02 642.24 584.73 647 568.43 660.96 552.13 679.91 535.83 698.18 519.54 710.29 503.24 712.61 486.94 704.44 470.65 688.23 454.35 668.84 438.05 652.09 421.76 643 405.46 644.3 389.16 655.6 372.87 673.5 356.57 692.64 340.27 707.29 323.98 713.04 307.68 708.17 291.38 694.15 275.08 675.17 258.79 656.94 242.49 644.91 226.2 642.69 209.9 650.96 193.6 667.22 177.31 686.61 161.01 703.31 144.71 712.3C131.49 711.99 124.62 693.89 131.92 684.74Q136.92 677.58 141.83 669.77 146.63 661.3 151.28 652.2 155.77 642.49 160.08 632.21 164.18 621.43 168.07 610.19 171.75 598.57 175.21 586.65 178.45 574.5 181.49 562.2 184.33 549.84 187.01 537.5 189.55 525.26 191.97 513.2 194.31 501.4 196.61 489.92 198.9 478.81 201.22 468.13 203.63 457.92 206.15 448.22 208.82 439.03 211.69 430.37 218.28 414.86 225.69 400.84 234.62 388.92 244.48 377.96 255.73 368.02 267.65 358.3 280.3 348.3 293.1 337.77 305.61 325.87 317.63 312.93 323.22 305.79 328.51 298.25 333.46 290.31 338.04 281.98 342.22 273.27 346 264.2 349.37 254.81 352.33 245.13 354.91 235.19 357.12 225.06 359 214.76 360.58 204.35 361.92 193.88 363.08 183.39 364.1 172.95 365.06 162.58 366.03 152.33 367.07 142.25 368.94 127.53 369.63 122.7" stroke-dasharray="6 9" transform="rotate(4.04, 400, 400)" opacity="0.20"></path><path d="M373.63 132.91C375.69 118.48 392.89 115.44 403.06 127.74Q416.74 144.06 431.13 161.53 445.71 180.08 459.92 199.56 473.21 219.74 485.09 240.3 495.18 260.9 503.22 281.14 509.11 300.67 512.96 319.13 515 336.26 515.65 351.87 515.45 365.87 515.02 378.3 515.02 389.32 516.11 399.2 518.84 408.31 523.68 417.1 530.92 426.05 540.66 435.68 552.8 446.44 567.05 458.75 582.93 472.91 599.82 489.11 616.98 507.38 633.67 527.61 649.13 549.54 662.71 572.78 673.88 596.8 682.31 621.03 687.87 644.84 690.67 667.61C691.17 683.05 675.38 690.48 662.56 677.6Q646.76 659.21 630.96 642.85 615.16 633.04 599.36 632.51 583.55 641.4 567.75 657.24 551.95 675.66 536.15 691.54 520.35 700.5 504.54 700.05 488.74 690.32 472.94 673.99 457.14 655.6 441.34 640.24 425.53 632.15 409.73 633.58 393.93 644.14 378.13 660.89 362.33 679.21 346.52 694.01 330.72 701.2 314.92 698.79 299.12 687.44 283.31 670.3 267.51 652.12 251.71 637.92 235.91 631.65 220.1 635.03 204.3 647.14 188.5 664.61 172.7 682.62 156.9 696.17C144.07 701.23 137.34 687.47 144.3 676.2Q153.62 658.5 162.38 638.63 170.44 616.98 177.69 594.04 184.12 570.36 189.77 546.54 194.77 523.17 199.31 500.78 203.64 479.81 208.03 460.58 212.79 443.29 218.18 427.96 224.47 414.51 231.81 402.7 240.31 392.18 249.97 382.55 260.69 373.34 272.27 364.08 284.44 354.31 296.84 343.65 309.09 331.79 320.8 318.52 331.61 303.75 341.23 287.5 349.43 269.9 356.11 251.17 361.29 231.59 365.12 211.51 367.86 191.27 369.9 171.23 371.66 151.69 373.63 132.91 373.63 132.91 373.63 132.91" stroke-dasharray="4 1" transform="rotate(8.08, 400, 400)" opacity="0.68"></path><path d="M378.05 143.1C379.57 129.27 396.21 126.26 406.53 138Q420.06 153.56 433.94 170.2 447.7 187.88 460.83 206.46 472.89 225.76 483.5 245.5 492.35 265.38 499.3 285.06 504.31 304.2 507.51 322.48 509.16 339.63 509.65 355.42 509.46 369.75 509.15 382.57 509.29 393.96 510.45 404.09 513.11 413.25 517.69 421.77 524.42 430.07 533.44 438.59 544.67 447.78 557.87 458.06 572.68 469.78 588.57 483.22 604.92 498.55 621.09 515.82 636.42 534.95 650.27 555.72 662.15 577.79 671.67 600.75 678.61 624.09 682.96 647.24C684.56 663.48 670.48 668.28 658.09 654.29Q642.81 637.55 627.53 625.37 612.25 620.85 596.97 625.14 581.69 637.14 566.41 653.81 551.13 670.89 535.84 684.02 520.56 689.87 505.28 686.95 490 675.98 474.72 659.78 459.44 642.47 444.16 628.46 428.88 621.32 413.6 622.87 398.32 632.72 383.04 648.35 367.76 665.79 352.48 680.58 337.2 688.96 321.91 688.8 306.63 680.13 291.35 665.17 276.07 647.72 260.79 632.23 245.51 622.66 230.23 621.44 214.95 628.87 199.67 643.08 184.39 660.43 169.1 676.51C156.71 685.75 150.07 676.01 156.59 662.9Q165.24 643.08 173.26 621.75 180.56 599.38 187.07 576.49 192.83 553.6 197.89 531.23 202.41 509.84 206.58 489.82 210.63 471.44 214.82 454.86 219.42 440.13 224.68 427.15 230.8 415.73 237.93 405.57 246.15 396.31 255.46 387.54 265.76 378.84 276.88 369.78 288.57 360.02 300.52 349.23 312.41 337.19 323.87 323.77 334.57 308.95 344.22 292.78 352.62 275.41 359.62 257.06 365.19 238.02 369.43 218.6 372.51 199.11 374.73 179.85 376.43 161.11 378.05 143.1 378.05 143.1 378.05 143.1" stroke-dasharray="7 3" transform="rotate(12.12, 400, 400)" opacity="0.45"></path><path d="M382.76 153.28C383.95 140.06 400.03 137.09 410.28 148.26Q423.43 163.06 436.6 178.88 449.38 195.68 461.35 213.36 472.16 231.75 481.51 250.63 489.2 269.75 495.14 288.79 499.35 307.46 501.98 325.47 503.3 342.53 503.66 358.44 503.5 373.03 503.31 386.23 503.58 398.04 504.8 408.55 507.39 417.94 511.7 426.47 517.96 434.47 526.28 442.3 536.62 450.36 548.82 459.05 562.55 468.73 577.42 479.73 592.89 492.31 608.43 506.63 623.44 522.74 637.38 540.61 649.74 560.08 660.13 580.87 668.28 602.65 674.06 624.98C676.78 641.12 664.51 644.58 652.57 631.39Q637.84 618.07 623.11 610.88 608.38 611.5 593.66 619.78 578.93 633.8 564.2 650.27 549.47 665.35 534.74 675.52 520.02 678.4 505.29 673.31 490.56 661.46 475.83 645.6 461.1 629.44 446.37 616.75 431.65 610.51 416.92 612.16 402.19 621.32 387.46 635.85 372.73 652.36 358 666.99 343.28 676.33 328.55 678.18 313.82 672.13 299.09 659.58 284.36 643.46 269.63 627.54 254.91 615.54 240.18 610.27 225.45 612.94 210.72 622.94 195.99 637.94 181.26 654.42C169.32 666.23 162.69 659.76 168.73 645.38Q176.64 624.38 183.89 602.61 190.42 580.54 196.22 558.64 201.33 537.36 205.85 517.09 209.94 498.15 213.77 480.77 217.58 465.08 221.6 451.09 226.07 438.74 231.19 427.83 237.14 418.11 244.06 409.27 252 400.94 260.95 392.74 270.82 384.31 281.47 375.29 292.68 365.41 304.18 354.43 315.67 342.21 326.84 328.67 337.38 313.83 347.03 297.79 355.57 280.72 362.85 262.82 368.81 244.36 373.47 225.63 376.95 206.9 379.46 188.45 381.28 170.51 382.76 153.28 382.76 153.28 382.76 153.28" stroke-dasharray="3 0" transform="rotate(16.16, 400, 400)" opacity="0.39"></path><path d="M387.62 163.47C388.66 150.82 404.18 147.92 414.17 158.54Q426.7 172.58 438.99 187.57 450.68 203.49 461.44 220.25 471 237.73 479.14 255.72 485.73 274.02 490.74 292.36 494.23 310.48 496.37 328.11 497.41 345 497.68 360.92 497.57 375.7 497.49 389.22 497.88 401.45 499.15 412.39 501.66 422.16 505.72 430.93 511.52 438.93 519.18 446.45 528.68 453.82 539.89 461.39 552.57 469.51 566.39 478.51 580.94 488.69 595.73 500.28 610.29 513.44 624.1 528.27 636.72 544.74 647.76 562.76 656.91 582.13 663.98 602.57C667.74 617.75 657.32 621.17 645.85 610.39Q631.7 601.66 617.56 599.65 603.42 604.8 589.27 616.01 575.13 630.89 560.99 646.26 546.84 658.85 532.7 665.98 518.55 666.12 504.41 659.24 490.27 646.82 476.12 631.49 461.98 616.53 447.83 605.13 433.69 599.72 419.55 601.45 405.4 609.95 391.26 623.41 377.11 638.97 362.97 653.29 348.83 663.34 334.68 666.96 320.54 663.39 306.39 653.38 292.25 639.08 278.1 623.52 263.96 610.03 249.82 601.49 235.67 599.71 221.53 605.07 207.38 616.44 193.24 631.38C181.77 643.94 175.12 639.66 180.63 624.77Q187.76 603.68 194.23 582.53 200.01 561.73 205.12 541.65 209.64 522.62 213.67 504.89 217.37 488.65 220.91 473.98 224.52 460.88 228.38 449.28 232.72 439 237.71 429.81 243.5 421.44 250.2 413.56 257.84 405.85 266.43 397.96 275.88 389.6 286.06 380.49 296.78 370.41 307.8 359.22 318.87 346.82 329.72 333.2 340.06 318.41 349.65 302.57 358.29 285.84 365.8 268.45 372.11 250.62 377.19 232.61 381.11 214.67 384 197.04 386.85 171.69 387.62 163.47" stroke-dasharray="10 7" transform="rotate(20.200000000000003, 400, 400)" opacity="0.73"></path><path d="M392.46 173.64C393.54 161.6 408.47 158.76 418 168.81Q429.72 182.1 440.99 196.27 451.52 211.31 461.06 227.15 469.39 243.69 476.38 260.77 481.95 278.21 486.13 295.79 488.99 313.28 490.7 330.44 491.52 347.03 491.72 362.85 491.66 377.72 491.7 391.49 492.19 404.09 493.5 415.49 495.94 425.71 499.75 434.87 505.12 443.11 512.14 450.64 520.83 457.73 531.09 464.65 542.74 471.71 555.52 479.22 569.09 487.48 583.07 496.75 597.02 507.25 610.54 519.16 623.21 532.58 634.65 547.53 644.56 563.96 652.71 581.74C657.41 595.27 648.78 599.68 637.81 592.43Q624.28 588.79 610.75 591.6 597.23 600.32 583.7 613.26 570.17 627.91 556.65 641.44 543.12 651.22 529.59 655.37 516.07 653.06 502.54 644.76 489.01 632.08 475.49 617.46 461.96 603.74 448.43 593.58 434.91 588.94 421.38 590.73 407.86 598.6 394.33 611.02 380.8 625.59 367.28 639.48 353.75 650.01 340.22 655.13 326.69 653.86 313.17 646.43 299.64 634.29 286.11 619.79 272.59 605.74 259.06 594.86 245.53 589.26 232.01 590.02 218.48 596.99 204.95 608.83C193.98 620.45 187.27 617.21 192.2 602.62Q198.54 582.53 204.23 562.95 209.29 544.2 213.77 526.53 217.74 510.15 221.34 495.16 224.7 481.64 228 469.56 231.43 458.82 235.16 449.26 239.38 440.69 244.25 432.84 249.87 425.44 256.34 418.19 263.69 410.8 271.91 403 280.93 394.55 290.63 385.24 300.85 374.94 311.39 363.53 322.03 350.99 332.51 337.35 342.61 322.67 352.09 307.09 360.76 290.78 368.45 273.94 375.06 256.78 380.54 239.53 384.91 222.4 388.24 205.6 391.57 181.47 392.46 173.64" stroke-dasharray="1 9" transform="rotate(24.24, 400, 400)" opacity="0.36"></path><path d="M397.11 183.81C398.37 172.36 412.71 169.59 421.62 179.1Q432.38 191.64 442.53 204.99 451.86 219.15 460.17 234.07 467.32 249.66 473.23 265.81 477.88 282.35 481.31 299.11 483.62 315.89 484.98 332.48 485.61 348.67 485.78 364.28 485.79 379.11 485.93 393.03 486.52 405.92 487.86 417.73 490.21 428.43 493.78 438.06 498.74 446.71 505.17 454.51 513.08 461.65 522.43 468.34 533.08 474.82 544.82 481.38 557.38 488.26 570.46 495.74 583.71 504.05 596.77 513.41 609.27 524 620.88 535.91 631.31 549.23 640.3 563.94C645.78 575.35 638.85 581.51 628.41 578.32Q615.53 579.6 602.65 586.37 589.77 597.46 576.89 610.93 564.01 624.4 551.13 635.53 538.26 642.36 525.38 643.71 512.5 639.32 499.62 629.98 486.74 617.32 473.86 603.55 460.98 591.08 448.1 582.11 435.23 578.19 422.35 580.02 409.47 587.28 396.59 598.69 383.71 612.26 370.83 625.61 357.95 636.4 345.07 642.74 332.19 643.53 319.32 638.62 306.44 628.88 293.56 616 280.68 602.25 267.8 590.03 254.92 581.49 242.04 578.11 229.16 580.5 216.28 588.23C205.84 597.5 199.07 594.14 203.42 580.62Q208.95 562.43 213.9 545.16 218.29 529 222.18 514.07 225.67 500.47 228.88 488.2 231.96 477.22 235.05 467.44 242.2 451.1 250.8 436.6 256.25 429.8 262.49 422.87 269.54 415.57 277.39 407.68 285.97 399.03 295.19 389.47 304.91 378.92 314.95 367.33 325.12 354.71 335.22 341.11 345.02 326.62 354.34 311.39 362.98 295.56 370.79 279.33 377.65 262.88 383.49 246.41 388.3 230.11 392.1 214.15 396.05 191.24 397.11 183.81" stroke-dasharray="7 1" transform="rotate(28.28, 400, 400)" opacity="0.50"></path><path d="M401.44 193.96C402.99 183.12 416.71 180.43 424.86 189.39Q434.54 201.18 443.52 213.72 451.63 227.01 458.75 241 464.8 255.64 469.72 270.83 473.53 286.44 476.3 302.33 478.14 318.33 479.21 334.26 479.71 349.95 479.87 365.21 479.94 379.88 480.18 393.82 480.86 406.9 482.22 419.04 484.48 430.17 487.82 440.3 492.38 449.45 498.24 457.69 505.43 465.14 513.91 471.95 523.58 478.3 534.29 484.39 545.84 490.46 557.97 496.72 570.41 503.42 582.86 510.77 595.02 518.97 606.58 528.19 617.26 538.56 626.84 550.17C632.93 559.31 627.54 567.52 617.64 568.31Q605.44 573.76 593.23 583.33 581.03 595.51 568.83 608.37 556.63 619.9 544.43 628.29 532.22 632.2 520.02 631.03 507.82 624.96 495.62 614.94 483.42 602.56 471.21 589.75 459.01 578.55 446.81 570.7 434.61 567.45 422.4 569.3 410.2 575.98 398 586.41 385.8 598.97 373.6 611.67 361.39 622.52 349.19 629.81 336.99 632.39 324.79 629.86 312.58 622.6 300.38 611.78 288.18 599.08 275.98 586.51 263.77 576.05 251.57 569.34 239.37 567.44 227.17 570.65C217.26 576.69 210.44 572.3 214.21 560.43Q218.98 544.8 223.22 530.26 226.99 516.91 230.37 504.77 233.44 493.84 236.33 484.04 242.2 467.73 248.76 453.49 257.71 440.65 268.65 427.35 275.39 419.94 282.87 411.83 291.01 402.91 299.75 393.08 308.95 382.32 318.48 370.6 328.18 357.96 337.85 344.49 347.32 330.28 356.42 315.45 364.97 300.17 372.83 284.6 379.87 268.9 386.02 253.24 391.23 237.78 395.5 222.67 400.15 201 401.44 193.96" stroke-dasharray="2 2" transform="rotate(32.32, 400, 400)" opacity="0.64"></path><path d="M405.29 204.12C407.21 193.89 420.29 191.28 427.58 199.69Q436.1 210.75 443.89 222.48 450.82 234.89 456.81 247.97 461.82 261.65 465.85 275.86 468.93 290.52 471.13 305.49 472.58 320.64 473.41 335.83 473.81 350.9 473.98 365.7 474.12 380.08 474.46 393.89 475.22 407.02 476.59 419.37 478.75 430.85 481.87 441.43 486.05 451.09 491.38 459.86 497.87 467.79 505.52 474.97 514.25 481.52 523.96 487.59 534.49 493.35 545.64 498.98 557.2 504.68 568.93 510.64 580.57 517.07 591.86 524.15 602.57 532.03 612.47 540.86C618.96 547.85 614.91 558.01 605.58 562.17Q594.08 570.64 582.57 581.66 571.07 593.68 559.57 605.01 548.07 614.06 536.57 619.56 525.07 620.73 513.56 617.41 502.06 610.07 490.56 599.73 479.06 587.85 467.56 576.11 456.06 566.15 444.55 559.37 433.05 556.72 421.55 558.59 410.05 564.7 398.55 574.19 387.05 585.74 375.54 597.72 364.04 608.44 352.54 616.39 341.04 620.47 329.54 620.09 318.03 615.31 306.53 606.8 295.03 595.76 283.53 583.74 272.03 572.42 260.52 563.41 249.02 557.96 237.52 556.85C228.18 559.27 221.34 553.31 224.54 543.44Q228.59 530.63 232.2 518.93 235.42 508.32 238.34 498.76 243.69 482.79 249.11 468.93 255.83 456.89 263.96 444.83 269.06 438.34 274.81 431.34 281.25 423.69 288.34 415.29 296.05 406.08 304.3 396.01 312.98 385.08 321.99 373.31 331.19 360.75 340.41 347.5 349.51 333.64 358.33 319.31 366.73 304.64 374.56 289.77 381.72 274.86 388.11 260.04 393.67 245.44 398.37 231.19 403.76 210.76 405.29 204.12" stroke-dasharray="10 11" transform="rotate(36.36, 400, 400)" opacity="0.48"></path><path d="M408.54 214.27C410.88 204.64 423.27 202.12 429.65 209.99Q436.99 220.32 443.6 231.25 449.4 242.8 454.34 254.96 458.42 267.68 461.66 280.92 464.1 294.59 465.82 308.6 466.95 322.86 467.6 337.23 467.93 351.58 468.12 365.8 468.34 379.74 468.77 393.28 469.58 406.31 470.95 418.72 473.02 430.42 475.92 441.35 479.74 451.47 484.56 460.77 490.4 469.25 497.26 476.95 505.1 483.95 513.83 490.32 523.35 496.19 533.5 501.7 544.13 506.97 555.03 512.19 566.01 517.52 576.85 523.12 587.35 529.16 597.31 535.78C604.04 541 601.09 552.66 592.35 559.2Q581.56 569.28 570.78 580.42 560 591.22 549.21 600.32 538.43 606.61 527.65 609.28 516.87 608.02 506.08 602.97 495.3 594.77 484.52 584.44 473.73 573.26 462.95 562.64 452.17 553.9 441.38 548.12 430.6 546.02 419.82 547.88 409.03 553.45 398.25 562.05 387.47 572.6 376.69 583.78 365.9 594.2 355.12 602.56 344.34 607.82 333.55 609.32 322.77 606.88 311.99 600.79 301.21 591.83 290.42 581.1 279.64 569.94 268.86 559.75 258.07 551.8 247.29 547.08C238.55 546.04 231.73 538.32 234.42 530.49Q237.81 520.48 240.85 511.41 246.08 496.16 250.97 482.92 256.28 471.61 262.45 460.52 270.87 448.3 280.99 434.6 287.11 426.64 293.82 417.94 301.08 408.46 308.84 398.21 317.01 387.19 325.48 375.46 334.16 363.08 342.91 350.14 351.6 336.73 360.1 322.96 368.27 308.96 376.01 294.85 383.19 280.76 389.74 266.8 395.58 253.08 400.66 239.7 406.76 220.5 408.54 214.27" stroke-dasharray="0 10" transform="rotate(40.400000000000006, 400, 400)" opacity="0.64"></path><path d="M411.09 224.41C413.84 215.39 425.54 212.98 430.97 220.31Q437.15 229.9 442.63 240.04 447.38 250.74 451.37 261.99 454.62 273.75 457.17 286.01 459.06 298.68 460.4 311.71 461.26 325.02 461.78 338.5 462.08 352.05 462.3 365.57 462.59 378.95 463.1 392.06 463.96 404.82 465.32 417.13 467.29 428.88 469.98 440.02 473.46 450.48 477.8 460.23 483.03 469.23 489.15 477.51 496.13 485.07 503.92 491.96 512.45 498.24 521.61 504.01 531.26 509.35 541.27 514.39 551.47 519.25 561.7 524.07 571.78 528.99 581.55 534.14C588.29 538.08 586.24 550.55 578.09 558.29Q568.04 568.59 557.99 578.66 547.94 587.41 537.89 593.88 527.84 597.34 517.79 597.43 507.74 594.14 497.69 587.82 487.64 579.17 477.59 569.13 467.54 558.82 457.49 549.35 447.44 541.78 437.39 536.93 427.34 535.33 417.29 537.16 407.24 542.22 397.19 549.95 387.14 559.51 377.08 569.84 367.03 579.81 356.98 588.33 346.93 594.47 336.88 597.54 326.83 597.21 316.78 593.52 306.73 586.88 296.68 578 286.63 567.88 276.58 557.6 266.53 548.32 256.48 541.03C248.33 537.16 241.6 527.85 243.82 521.92Q249.1 507.77 253.79 495.41 258.29 484.87 263.19 474.65 269.56 463.66 277.22 451.52 281.93 444.54 287.17 436.93 292.97 428.65 299.29 419.68 306.11 410 313.37 399.65 321.02 388.66 328.96 377.08 337.1 364.98 345.35 352.45 353.59 339.57 361.71 326.44 369.61 313.17 377.17 299.86 384.31 286.62 390.92 273.53 396.95 260.7 402.35 248.19 409.08 230.24 411.09 224.41" stroke-dasharray="11 10" transform="rotate(44.44, 400, 400)" opacity="0.50"></path><path d="M412.87 234.56C416 226.15 426.97 223.84 431.48 230.64Q436.55 239.51 440.98 248.87 444.76 258.73 447.91 269.07 450.44 279.89 452.41 291.16 453.86 302.83 454.87 314.85 455.54 327.17 455.97 339.7 456.25 352.37 456.52 365.09 456.88 377.77 457.45 390.32 458.36 402.65 459.69 414.67 461.56 426.3 464.04 437.47 467.2 448.1 471.09 458.15 475.74 467.58 481.16 476.37 487.33 484.5 494.23 491.99 501.8 498.85 509.97 505.13 518.63 510.89 527.7 516.19 537.03 521.12 546.52 525.78 556.01 530.27 565.37 534.69C571.95 537.91 570.58 550.39 563.02 558.14Q553.71 567.4 544.4 575.52 535.09 581.72 525.78 585.41 516.47 586.23 507.16 584.11 497.84 579.25 488.53 572.11 479.22 563.38 469.91 553.89 460.6 544.56 451.29 536.27 441.98 529.82 432.67 525.82 423.36 524.66 414.04 526.45 404.73 531.02 395.42 537.93 386.11 546.52 376.8 555.97 367.49 565.37 358.18 573.82 348.87 580.52 339.56 584.82 330.25 586.31 320.94 584.84 311.63 580.57 302.31 573.9 293 565.46 283.69 556.07 274.38 546.62 265.07 538.02C257.52 532.23 250.98 521.8 252.8 517.39Q260.29 499.31 265.47 487.35 270.43 477.36 276.28 466.43 284.13 453.16 293.37 438.18 298.83 429.62 304.76 420.45 311.13 410.69 317.9 400.35 325.02 389.5 332.41 378.19 340.02 366.48 347.74 354.45 355.5 342.19 363.2 329.77 370.76 317.28 378.08 304.82 385.07 292.45 391.67 280.26 397.8 268.32 403.4 256.69 410.65 239.99 412.87 234.56" stroke-dasharray="10 10" transform="rotate(48.48, 400, 400)" opacity="0.55"></path><path d="M413.84 244.69C417.28 236.89 427.49 234.7 431.13 240.97Q435.16 249.13 438.65 257.72 441.59 266.75 444.01 276.2 445.94 286.09 447.42 296.37 448.51 307.04 449.28 318.05 449.81 329.35 450.17 340.89 450.47 352.61 450.78 364.44 451.2 376.32 451.83 388.16 452.76 399.9 454.06 411.46 455.82 422.77 458.1 433.76 460.95 444.37 464.42 454.54 468.53 464.22 473.3 473.38 478.72 481.98 484.77 490.02 491.42 497.48 498.62 504.38 506.31 510.74 514.4 516.58 522.81 521.95 531.45 526.92 540.2 531.54 548.97 535.89C555.23 538.89 554.3 550.63 547.35 557.36Q530.21 570.26 513.07 574.77 495.93 569.44 478.79 556 461.66 538.79 444.52 523.39 427.38 514.77 410.24 515.73 393.1 525.96 375.96 542.15 358.82 559.05 341.68 571.2 324.54 574.66 307.4 568.32 290.27 554.22 273.13 536.93C266.17 530.29 259.89 519.39 261.38 516.04Q267.93 500.79 272.74 489.68 277.57 479.34 283.27 467.8 290.8 453.82 299.57 438.23 304.7 429.5 310.23 420.25 316.15 410.51 322.43 400.33 329.01 389.75 335.86 378.82 342.91 367.62 350.09 356.19 357.34 344.62 364.58 332.97 371.74 321.31 378.74 309.72 385.52 298.25 392 286.96 398.12 275.92 403.83 265.17 411.46 249.72 413.84 244.69" stroke-dasharray="5 2" transform="rotate(52.52, 400, 400)" opacity="0.10"></path><path d="M413.97 254.83C417.65 247.64 427.06 245.57 429.9 251.32Q435.67 266.61 439.71 283.4 442.24 301.68 443.65 321.32 444.41 342.11 445.08 363.7 446.24 385.7 448.44 407.64 452.17 429.05 457.81 449.47 465.58 468.51 475.55 485.84 487.6 501.27 501.44 514.72 516.62 526.27 532.56 536.14C538.36 539.35 537.68 549.71 531.33 554.7Q515.67 562.38 500 561.99 484.34 553.65 468.67 539.66 453.01 523.89 437.34 510.72 421.68 503.79 406.01 505.02 390.35 514.07 374.68 528.43 359.02 544.13 343.35 556.82 327.69 562.98 312.02 560.91 296.35 551.18 280.69 536.49C274.34 530.03 268.4 519.36 269.64 516.56Q272.91 508.73 276.25 500.37 280.04 490.98 284.62 480.16 290.31 467.64 297.32 453.27 305.78 437.04 315.7 419.08 326.95 399.63 339.3 379.03 352.41 357.7 365.86 336.07 379.2 314.59 391.94 293.67 403.66 273.66 413.97 254.83 413.97 254.83 413.97 254.83" stroke-dasharray="4 3" transform="rotate(56.56, 400, 400)" opacity="0.40"></path><path d="M413.28 264.96C417.09 258.38 425.7 256.45 427.83 261.67Q432.12 275.52 435.07 290.66 436.92 307.08 437.99 324.71 438.69 343.42 439.44 362.96 440.68 383.05 442.82 403.35 446.25 423.5 451.24 443.13 457.98 461.87 466.55 479.43 476.91 495.55 488.86 510.05 502.12 522.87 516.3 534.04C521.54 537.68 520.97 546.28 515.21 549.18Q501 551.67 486.79 547.26 472.58 537 458.37 523.26 444.16 509.27 429.96 498.29 415.75 492.88 401.54 494.31 387.33 502.24 373.12 514.83 358.92 529.13 344.71 541.79 330.5 549.87 316.29 551.48 302.08 546.24 287.88 535.37C282.12 529.91 276.61 520.1 277.66 517.45Q280.57 509.58 283.73 500.72 287.43 490.58 291.92 478.95 297.42 465.73 304.09 450.93 312.01 434.62 321.16 417 331.47 398.32 342.73 378.88 354.7 359.02 367.07 339.09 379.47 319.44 391.54 300.37 402.92 282.15 413.28 264.96 413.28 264.96 413.28 264.96" stroke-dasharray="7 5" transform="rotate(60.599999999999994, 400, 400)" opacity="0.11"></path><path d="M411.82 275.09C415.65 269.12 423.45 267.32 424.99 272.03Q428.06 284.47 430.15 297.99 431.49 312.59 432.35 328.24 433.03 344.86 433.85 362.3 435.14 380.35 437.21 398.79 440.32 417.35 444.71 435.75 450.5 453.7 457.79 470.94 466.56 487.21 476.71 502.32 488.07 516.13 500.39 528.53C505 532.65 504.41 539.34 499.23 540.15Q486.45 538.14 473.67 530.87 460.9 519.77 448.12 506.98 435.34 494.97 422.56 486.08 409.79 482.03 397.01 483.59 384.23 490.47 371.45 501.34 358.68 514.09 345.9 526.25 333.12 535.46 320.34 539.94 307.56 538.83 294.79 532.33C289.6 528.41 284.61 519.97 285.53 517.15Q288.23 508.62 291.29 498.92 294.91 487.94 299.3 475.62 304.59 461.96 310.89 447.06 318.24 431.05 326.63 414.12 335.98 396.49 346.16 378.43 356.98 360.2 368.22 342.07 379.59 324.29 390.84 307.09 401.67 290.64 411.82 275.09 411.82 275.09 411.82 275.09" stroke-dasharray="7 9" transform="rotate(64.64, 400, 400)" opacity="0.12"></path><path d="M409.67 285.22C413.39 279.86 420.37 278.21 421.44 282.42Q423.56 293.47 425.02 305.41 426.01 318.24 426.73 331.96 427.42 346.51 428.31 361.82 429.62 377.75 431.59 394.16 434.4 410.86 438.21 427.65 443.14 444.33 449.25 460.69 456.56 476.51 465.02 491.62 474.54 505.85 484.98 519.07C488.91 523.56 488.23 528.46 483.62 527.49Q472.24 522.11 460.86 513.25 449.48 502.29 438.11 490.97 426.73 481.05 415.35 474.11 403.97 471.24 392.6 472.88 381.22 478.79 369.84 488.02 358.46 499.13 347.09 510.37 335.71 519.97 324.33 526.41 312.96 528.69 301.58 526.45C296.96 524.31 292.53 517.48 293.38 514.34Q295.97 504.92 298.98 494.4 302.54 482.78 306.8 470.08 311.84 456.38 317.73 441.79 324.48 426.45 332.09 410.55 340.49 394.26 349.59 377.78 359.26 361.31 369.32 345.05 379.6 329.17 389.89 313.83 404.82 292.18 409.67 285.22" stroke-dasharray="4 6" transform="rotate(68.68, 400, 400)" opacity="0.13"></path><path d="M406.92 295.35C410.45 290.59 416.59 289.09 417.3 292.8Q418.73 302.5 419.75 312.9 420.52 324.02 421.17 335.86 421.89 348.4 422.82 361.59 424.14 375.37 425.98 389.63 428.48 404.28 431.76 419.17 435.89 434.17 440.93 449.14 446.91 463.91 453.82 478.35 461.61 492.32 470.2 505.67C473.47 510.31 472.64 513.67 468.59 511.46Q458.57 504.13 448.56 494.88 438.55 484.89 428.54 475.38 418.52 467.55 408.51 462.38 398.5 460.51 388.49 462.16 378.47 467.15 368.46 474.84 358.45 484.28 348.44 494.28 338.42 503.61 328.41 511.09 318.4 515.8 308.38 517.14C304.33 516.67 300.49 511.52 301.33 508.08Q303.87 497.92 306.84 486.89 310.33 475.03 314.43 462.41 319.17 449.12 324.61 435.28 330.74 421.01 337.55 406.44 345.01 391.72 353.03 376.99 361.54 362.39 370.42 348.04 379.54 334.07 388.76 320.58 402.43 301.5 406.92 295.35" stroke-dasharray="4 6" transform="rotate(72.72, 400, 400)" opacity="0.84"></path><path d="M403.71 305.49C406.92 301.33 412.25 299.99 412.71 303.22Q413.67 311.58 414.41 320.49 415.05 329.95 415.69 339.98 416.44 350.57 417.4 361.7 418.68 373.33 420.37 385.42 422.57 397.89 425.34 410.68 428.75 423.7 432.83 436.86 437.62 450.06 443.12 463.2 449.32 476.18 456.17 488.9C458.79 493.39 457.83 495.64 454.3 492.8Q445.62 484.89 436.93 476.3 428.25 467.85 419.57 460.34 410.89 454.5 402.2 450.88 393.52 449.84 384.84 451.46 376.16 455.6 367.48 461.85 358.79 469.63 350.11 478.18 341.43 486.69 332.75 494.34 324.07 500.41 315.38 504.3C311.86 505.17 308.65 501.52 309.47 497.91Q312 487.47 314.93 476.45 318.31 464.89 322.18 452.87 326.58 440.48 331.52 427.8 337 414.94 343.01 401.98 349.52 389.02 356.48 376.16 363.84 363.49 371.51 351.09 379.44 339.03 387.51 327.38 399.67 310.84 403.71 305.49" stroke-dasharray="5 3" transform="rotate(76.76, 400, 400)" opacity="0.94"></path><path d="M400.18 315.61C402.99 312.07 407.52 310.9 407.83 313.63Q409.09 328.17 410.32 344.35 412.04 362.22 414.77 381.69 418.96 402.55 424.94 424.47 432.92 447.04 442.95 469.76C444.97 473.83 443.9 475.36 440.9 472.5Q426.13 458.04 411.36 445.97 396.59 439.61 381.81 440.74 367.04 449.03 352.27 462.2 337.49 476.6 322.72 488.23C319.73 489.93 317.14 487.5 317.96 483.96Q323.3 463.46 330.09 441.87 338.48 419.67 348.47 397.34 359.94 375.38 372.64 354.22 386.2 334.21 400.18 315.61 400.18 315.61 400.18 315.61" stroke-dasharray="1 7" transform="rotate(80.80000000000001, 400, 400)" opacity="0.61"></path><path d="M396.49 325.74C398.84 322.8 402.58 321.8 402.8 324.06Q403.85 335.94 405.06 348.97 406.74 363.2 409.17 378.6 412.6 395.11 417.24 412.58 423.22 430.82 430.61 449.6C432.08 453.01 430.96 454.16 428.48 451.74Q416.24 440.59 404 432.33 391.76 428.57 379.52 430.02 367.28 436.41 355.04 446.51 342.8 458.34 330.56 469.63C328.08 471.65 326.08 470.09 326.88 466.87Q331.98 448.57 338.16 429.92 345.48 411.22 353.92 392.73 363.42 374.74 373.82 357.46 384.92 341.09 396.49 325.74 396.49 325.74 396.49 325.74" stroke-dasharray="8 3" transform="rotate(84.84, 400, 400)" opacity="0.35"></path><path d="M392.8 335.88C394.66 333.53 397.6 332.72 397.79 334.51Q398.75 343.83 399.94 353.88 401.49 364.7 403.56 376.3 406.27 388.67 409.72 401.76 413.99 415.51 419.13 429.83C420.16 432.47 419.06 433.47 417.09 431.75Q407.34 424.38 397.58 419.51 387.82 417.75 378.07 419.31 368.31 424.01 358.55 431.25 348.79 440.13 339.04 449.55C337.07 451.41 335.6 450.4 336.37 447.69Q341.02 432.63 346.4 417.63 352.53 402.82 359.38 388.35 366.91 374.33 375.06 360.86 388.26 341.96 392.8 335.88" stroke-dasharray="2 10" transform="rotate(88.88, 400, 400)" opacity="0.91"></path><path d="M389.27 346.02C390.62 344.27 392.81 343.65 392.98 344.97Q394.98 359.07 397.96 374.89 402.37 392.48 408.52 411.78C409.17 413.61 408.21 414.55 406.72 413.58Q392.11 407.52 377.5 408.6 362.89 416.51 348.27 429.08C346.79 430.49 345.81 429.77 346.49 427.74Q354.82 405.59 364.83 384.37 376.4 364.43 389.27 346.02 389.27 346.02 389.27 346.02" stroke-dasharray="1 7" transform="rotate(92.92, 400, 400)" opacity="0.84"></path><path d="M386.06 356.17C386.92 354.99 388.37 354.57 388.51 355.45Q390.19 364.56 392.37 374.43 395.18 385.08 398.71 396.54C399.07 397.61 398.33 398.43 397.35 398.08Q387.59 396.37 377.84 397.89 368.09 402.44 358.34 409.45C357.35 410.26 356.79 409.72 357.3 408.43Q363.42 394.4 370.29 380.97 381.96 362.18 386.06 356.17" stroke-dasharray="3 7" transform="rotate(96.96, 400, 400)" opacity="0.33"></path></g></svg>
